 http://imageshack.us/m/847/4186/affichemetalmonsteriron.jpg

Country.......: USA, Canada
Genre.........: Sci-Fi
Date release..: 12.02.2011 [World]
Director......: Paul Ziller
Writers.......: Paul Ziller, Paul Ziller
Duration......: 87 min.
More..........: http://www.imdb.com/title/tt1651894
Trailer.......:

Pilot :
Alien bacteria arrives on a meteorite and infects metal, animating a giant iron statue that goes on a killing rampage in a small town. 

Cats :
Kavan Smith   	 ...  	Jake Hampton
Colby Johannson 	... 	Ethan Hampton
Nicole de Boer 	... 	Amanda
Merritt Patterson 	... 	Claire
Jesse Moss 	... 	Max
Donnelly Rhodes 	... 	Earl
Don Thompson 	... 	Harry
Chelah Horsdal 	... 	Deputy Jenny
Chris Gauthier 	... 	Bartender
Mark McConchie 	... 	Farmer
Paul McGillion 	... 	Sheriff Bill Jefferson 

Data Technical :
!!! SAMPLE !!!
Audio.....: English
Subtitles.: English .srt, Romanian .srt
Format                           : AVI
Format/Info                      : Audio Video Interleave
File size                        : 700 MiB
Duration                         : 1h 26mn
Overall bit rate                 : 1 128 Kbps
Writing application              : VirtualDubMod 1.5.4.1 (build 2178/release)
Writing library                  : VirtualDubMod build 2178/release
Video
ID                               : 0
Format                           : MPEG-4 Visual
Format profile                   : Advanced Simple@L5
Format settings, BVOP            : Yes
Format settings, QPel            : No
Format settings, GMC             : No warppoints
Format settings, Matrix          : Custom
Codec ID                         : XVID
Codec ID/Hint                    : XviD
Duration                         : 1h 26mn
Bit rate                         : 996 Kbps
Width                            : 656 pixels
Height                           : 368 pixels
Display aspect ratio             : 16:9
Frame rate                       : 23.976 fps
Color space                      : YUV
Chroma subsampling               : 4:2:0
Bit depth                        : 8 bits
Scan type                        : Progressive
Bits/(Pixel*Frame)               : 0.172
Stream size                      : 618 MiB (88%)
Writing library                  : XviD 1.2.1 (UTC 2008-12-04)
Audio
ID                               : 1
Format                           : MPEG Audio
Format version                   : Version 1
Format profile                   : Layer 3
Mode                             : Joint stereo
Codec ID                         : 55
Codec ID/Hint                    : MP3
Duration                         : 1h 26mn
Bit rate mode                    : Variable
Bit rate                         : 120 Kbps
Nominal bit rate                 : 128 Kbps
Channel(s)                       : 2 channels
Sampling rate                    : 48.0 KHz
Video delay                      : 24ms
Stream size                      : 74.3 MiB (11%)
Alignment                        : Split accross interleaves
Interleave, duration             : 24 ms (0.58 video frame)
Interleave, preload duration     : 532 ms
Writing library                  : LAME3.98r
Encoding settings                : -m j -V 4 -q 2 -lowpass 17 --abr 128

Screen : 
http://imageshack.us/m/196/8968/ironinvader2011s1.jpg 
http://imageshack.us/m/571/6762/ironinvader2011s2.jpg 
http://imageshack.us/m/88/9277/ironinvader2011s3.jpg 
http://imageshack.us/m/855/42/ironinvader2011s4.jpg 
http://imageshack.us/m/804/4335/ironinvader2011s5.jpg